HIERARCHY
ROOT Hips
{
	OFFSET 0.000000 0.000000 0.000000
	CHANNELS 6 Xposition Yposition Zposition Zrotation Yrotation Xrotation 
	JOINT LHipJoint
	{
		OFFSET 0.000000 0.000000 0.000000
		CHANNELS 3 Zrotation Yrotation Xrotation
		JOINT LeftUpLeg
		{
			OFFSET 1.363060 -1.794630 0.839290
			CHANNELS 3 Zrotation Yrotation Xrotation
			JOINT LeftLeg
			{
				OFFSET 2.448110 -6.726130 0.000000
				CHANNELS 3 Zrotation Yrotation Xrotation
				JOINT LeftFoot
				{
					OFFSET 2.562200 -7.039590 0.000000
					CHANNELS 3 Zrotation Yrotation Xrotation
					JOINT LeftToeBase
					{
						OFFSET 0.157640 -0.433110 2.322550
						CHANNELS 3 Zrotation Yrotation Xrotation
						End Site
						{
							OFFSET 0.000000 0.000000 0.000000
						}
					}
				}
			}
		}
	}
	JOINT RHipJoint
	{
		OFFSET 0.000000 0.000000 0.000000
		CHANNELS 3 Zrotation Yrotation Xrotation
		JOINT RightUpLeg
		{
			OFFSET -1.305520 -1.794630 0.839290
			CHANNELS 3 Zrotation Yrotation Xrotation
			JOINT RightLeg
			{
				OFFSET -2.542530 -6.985550 0.000000
				CHANNELS 3 Zrotation Yrotation Xrotation
				JOINT RightFoot
				{
					OFFSET -2.568260 -7.056230 0.000000
					CHANNELS 3 Zrotation Yrotation Xrotation
					JOINT RightToeBase
					{
						OFFSET -0.164730 -0.452590 2.363150
						CHANNELS 3 Zrotation Yrotation Xrotation
						End Site
						{
							OFFSET 0.000000 0.000000 0.000000
						}
					}
				}
			}
		}
	}
	JOINT LowerBack
	{
		OFFSET 0.000000 0.000000 0.000000
		CHANNELS 3 Zrotation Yrotation Xrotation
		JOINT Spine
		{
			OFFSET 0.028270 2.035590 -0.193380
			CHANNELS 3 Zrotation Yrotation Xrotation
			JOINT Spine1
			{
				OFFSET 0.056720 2.048850 -0.042750
				CHANNELS 3 Zrotation Yrotation Xrotation
				JOINT Neck
				{
					OFFSET 0.000000 0.000000 0.000000
					CHANNELS 3 Zrotation Yrotation Xrotation
					JOINT Neck1
					{
						OFFSET -0.054170 1.746240 0.172020
						CHANNELS 3 Zrotation Yrotation Xrotation
						JOINT Head
						{
							OFFSET 0.104070 1.761360 -0.123970
							CHANNELS 3 Zrotation Yrotation Xrotation
							End Site
							{
								OFFSET 0.000000 0.000000 0.000000
							}
						}
					}
				}
				JOINT LeftShoulder
				{
					OFFSET 0.000000 0.000000 0.000000
					CHANNELS 3 Zrotation Yrotation Xrotation
					JOINT LeftArm
					{
						OFFSET 3.362410 1.200890 -0.311210
						CHANNELS 3 Zrotation Yrotation Xrotation
						JOINT LeftForeArm
						{
							OFFSET 4.983000 -0.000000 -0.000000
							CHANNELS 3 Zrotation Yrotation Xrotation
							JOINT LeftHand
							{
								OFFSET 3.483560 -0.000000 -0.000000
								CHANNELS 3 Zrotation Yrotation Xrotation
								JOINT LeftFingerBase
								{
									OFFSET 0.000000 0.000000 0.000000
									CHANNELS 3 Zrotation Yrotation Xrotation
									JOINT LeftHandIndex1
									{
										OFFSET 0.715260 -0.000000 -0.000000
										CHANNELS 3 Zrotation Yrotation Xrotation
										End Site
										{
											OFFSET 0.000000 0.000000 0.000000
										}
									}
								}
								JOINT LThumb
								{
									OFFSET 0.000000 0.000000 0.000000
									CHANNELS 3 Zrotation Yrotation Xrotation
									End Site
									{
										OFFSET 0.000000 0.000000 0.000000
									}
								}
							}
						}
					}
				}
				JOINT RightShoulder
				{
					OFFSET 0.000000 0.000000 0.000000
					CHANNELS 3 Zrotation Yrotation Xrotation
					JOINT RightArm
					{
						OFFSET -3.136600 1.374050 -0.404650
						CHANNELS 3 Zrotation Yrotation Xrotation
						JOINT RightForeArm
						{
							OFFSET -5.241900 -0.000000 -0.000000
							CHANNELS 3 Zrotation Yrotation Xrotation
							JOINT RightHand
							{
								OFFSET -3.444170 -0.000000 -0.000000
								CHANNELS 3 Zrotation Yrotation Xrotation
								JOINT RightFingerBase
								{
									OFFSET 0.000000 0.000000 0.000000
									CHANNELS 3 Zrotation Yrotation Xrotation
									JOINT RightHandIndex1
									{
										OFFSET -0.622530 -0.000000 -0.000000
										CHANNELS 3 Zrotation Yrotation Xrotation
										End Site
										{
											OFFSET 0.000000 0.000000 0.000000
										}
									}
								}
								JOINT RThumb
								{
									OFFSET 0.000000 0.000000 0.000000
									CHANNELS 3 Zrotation Yrotation Xrotation
									End Site
									{
										OFFSET 0.000000 0.000000 0.000000
									}
								}
							}
						}
					}
				}
			}
		}
	}
}
MOTION
Frames: 6
Frame Time: 0.008333
-0.214400 14.834202 -14.727002 -2.397793 1.067228 30.101176 2.638216 -0.853610 -1.538151 -5.074785 -11.894546 -67.011327 13.947118 20.877718 72.498504 -0.246772 12.982128 -26.279660 0.668800 -5.229900 -14.565500 -3.824946 0.159251 0.424039 10.820631 18.644249 -68.917517 -14.568433 -21.448662 74.502908 -1.665712 -6.541037 -30.239423 -0.033300 1.178200 -3.239100 -1.098365 0.832430 24.493082 1.784016 1.401580 -2.449221 4.003582 0.387228 -5.982418 -4.151136 -0.595632 -17.387191 3.329163 -0.082180 3.736470 0.298700 -0.076500 4.590900 9.178071 3.195208 -0.372486 -92.600839 -19.222022 4.842627 1.816852 -5.232829 0.083207 -0.258906 -0.344859 11.590756 28.472944 -5.518287 -2.762000 -7.125000 0.000000 0.000000 1.476400 24.213500 -0.741200 -7.719782 -3.183196 -0.664464 89.802004 16.018276 -5.524505 -7.955509 16.450082 -1.306220 0.991217 0.506538 41.232814 -24.593193 -23.062189 10.791600 7.125000 0.000000 0.000000 4.751900 -56.205900 -1.308100 
-0.215919 14.940289 -14.582955 -2.333519 1.105457 29.562997 2.559802 -0.881382 -1.514249 -5.625033 -11.652942 -65.061200 13.467576 20.697136 71.116026 -0.306480 13.094677 -26.130437 0.751200 -5.536000 -15.443800 -3.782820 0.196358 0.399515 11.504436 18.155904 -66.917904 -14.110232 -21.278985 73.187885 -1.640752 -6.591772 -30.169774 -0.061600 1.601700 -4.406100 -1.129173 0.804454 24.067416 1.784022 1.354602 -2.490509 4.041825 0.366900 -5.926687 -4.184370 -0.629096 -17.428264 3.341329 -0.095691 4.372189 0.310400 -0.071600 4.822200 9.207723 3.130732 -0.402360 -92.644775 -21.061327 4.556464 1.840447 -5.262296 0.079166 -0.256580 -0.334770 11.740513 28.918029 -5.626545 -2.877800 -7.125000 0.000000 0.000000 1.800300 24.055300 -0.910600 -7.755840 -3.084583 -0.681325 89.651333 17.634103 -4.938977 -8.079917 16.612327 -1.348134 0.996263 0.486365 41.388327 -24.861714 -23.056936 10.919800 7.125000 0.000000 0.000000 4.440800 -56.246900 -1.226600 
-0.217538 15.055182 -14.431215 -2.252248 1.153556 28.942576 2.468987 -0.907782 -1.486594 -6.241135 -11.346934 -62.934136 12.940589 20.480464 69.586802 -0.361600 13.154063 -25.947923 0.828000 -5.805500 -16.221200 -3.730189 0.233081 0.371063 12.219787 17.597531 -64.726053 -13.608486 -21.075944 71.736920 -1.615744 -6.625651 -30.083073 -0.093600 1.973000 -5.431100 -1.158996 0.772619 23.645193 1.779124 1.301553 -2.530345 4.060744 0.344105 -5.867629 -4.217234 -0.670811 -17.428549 3.370540 -0.123056 5.073742 0.328500 -0.070600 5.068800 9.236488 3.075100 -0.430965 -92.713792 -22.743610 4.307912 1.930970 -5.414675 0.068801 -0.255807 -0.324402 11.945349 29.379329 -5.931710 -3.109100 -7.125000 0.000000 0.000000 2.124700 23.669600 -1.093700 -7.795873 -2.989729 -0.695331 89.543511 19.141865 -4.248955 -8.206876 16.785730 -1.392268 0.997486 0.469564 41.551230 -25.000896 -23.062670 10.988300 7.125000 0.000000 0.000000 4.278500 -56.271100 -1.184200 
-0.219259 15.179085 -14.271680 -2.162998 1.214444 28.245093 2.364102 -0.931157 -1.454367 -6.901334 -10.969447 -60.639070 12.366825 20.222588 67.906601 -0.421101 13.177712 -25.697241 0.903800 -6.058500 -16.954100 -3.665824 0.268316 0.338407 12.967946 16.969169 -62.346100 -13.060733 -20.833672 70.137976 -1.590677 -6.633454 -29.970361 -0.123300 2.263200 -6.233700 -1.177173 0.734894 23.218744 1.770882 1.242971 -2.567805 4.059546 0.318657 -5.798223 -4.249007 -0.722554 -17.399255 3.407655 -0.164912 5.851116 0.349900 -0.074400 5.336500 9.264588 3.029828 -0.458034 -92.811772 -24.257919 4.094926 2.092466 -5.697054 0.050569 -0.255018 -0.314861 12.074821 29.816160 -6.405721 -3.440100 -7.125000 0.000000 0.000000 2.417200 23.088800 -1.276800 -7.840025 -2.899959 -0.707541 89.489868 20.518752 -3.387986 -8.362497 17.014850 -1.447225 0.993244 0.460781 41.460324 -25.018458 -23.075351 10.999100 7.125000 0.000000 0.000000 4.255300 -56.276600 -1.178300 
-0.220980 15.311592 -14.104452 -2.066579 1.284532 27.481143 2.243604 -0.949874 -1.416471 -7.589135 -10.518534 -58.193642 11.748756 19.919477 66.076040 -0.490769 13.172015 -25.345953 0.981900 -6.307600 -17.679600 -3.588456 0.300596 0.301355 13.733748 16.273829 -59.790113 -12.465697 -20.546448 68.381313 -1.562216 -6.616475 -29.811071 -0.146400 2.465400 -6.793600 -1.185478 0.692418 22.774520 1.760406 1.179982 -2.601861 4.042663 0.290704 -5.710260 -4.273360 -0.778536 -17.321627 3.432995 -0.215176 6.686097 0.366300 -0.081900 5.614400 9.293252 2.994185 -0.482364 -92.944767 -25.614126 3.914084 2.314409 -6.089636 0.023978 -0.253201 -0.306770 12.043837 30.179365 -7.021719 -3.851800 -7.125000 0.000000 0.000000 2.640800 22.345800 -1.440000 -7.887810 -2.817383 -0.717800 89.495630 21.748450 -2.327757 -8.563339 17.326601 -1.518549 0.984222 0.461007 40.952364 -24.990020 -23.069763 10.979200 7.125000 0.000000 0.000000 4.278000 -56.253200 -1.182200 
-0.222093 15.452703 -13.929328 -1.969316 1.362153 26.660609 2.106226 -0.962153 -1.371720 -8.281661 -9.994414 -55.613724 11.090988 19.567655 64.100506 -0.577848 13.151532 -24.860344 1.068600 -6.571600 -18.452200 -3.496899 0.328413 0.259562 14.506760 15.511223 -57.072648 -11.821961 -20.207740 66.456137 -1.517926 -6.610310 -29.568614 -0.167000 2.632500 -7.257200 -1.175270 0.644458 22.292042 1.748716 1.114450 -2.630208 4.009276 0.260332 -5.587711 -4.296485 -0.834538 -17.169149 3.442176 -0.268759 7.549447 0.378100 -0.091400 5.884500 9.323677 2.966730 -0.502891 -93.119932 -26.862743 3.758539 2.564646 -6.532054 -0.008350 -0.249693 -0.300604 11.826621 30.430006 -7.692595 -4.286000 -7.125000 0.000000 0.000000 2.772200 21.545000 -1.562200 -7.939494 -2.743070 -0.724500 89.561315 22.838678 -1.117386 -8.802866 17.708824 -1.604265 0.972044 0.468157 40.035521 -24.983851 -23.021141 10.952200 7.125000 0.000000 0.000000 4.261800 -56.189300 -1.171100 
